<svg xmlns="http://www.w3.org/2000/svg" width="174.259" height="68.397" viewBox="0 0 174.259 68.397">
  <path id="Path_365" data-name="Path 365" d="M326.516-1030.491c-1.487-9.478,2.147-19.377,7.64-25.907s12.6-10.242,19.676-13.265a147.5,147.5,0,0,1,68.544-11.781c17.223,1.225,35.171,6.091,48.226,20.735,2.432,2.728,4.782,6.08,5.161,10.224.652,7.126-4.608,12.667-9.535,15.913-15.381,10.134-32.983,12.886-50.211,13.936a290.926,290.926,0,0,1-73.078-4.8c-10.13-1.962-20.338-4.52-29.552-10.327-4.067-2.563-8.206-6.241-9.443-11.888-1.891-8.633,3.849-16.9,9.763-21.546,9.5-7.46,20.546-10.873,31.5-13.195a187.192,187.192,0,0,1,48.657-3.839c14.012.736,28.461,3.272,40.427,12.768" transform="translate(476.827 -1019.096) rotate(180)" fill="none" stroke="#1b173d" stroke-miterlimit="10" stroke-width="2"/>
</svg>
